<svg viewBox="0 0 512 512" xmlns="http://www.w3.org/2000/svg" role="img" aria-labelledby="title maintenanceDesc">
  <title id="title">Mantenimiento</title>
  <desc id="maintenanceDesc">Icono de mantenimiento con engranaje y herramienta.</desc>
  <rect width="512" height="512" rx="32" fill="#f3f4f6"/>
  <circle cx="256" cy="256" r="192" fill="#fff" stroke="#d1d5db" stroke-width="16"/>
  <path d="M324 186l-42 72c-4 6-10 11-18 11h-70c-12 0-20-12-15-23l28-54-30-20c-11-8-12-24-3-35l24-30c8-11 24-12 35-3l42 30 42-30c11-8 27-7 35 3l24 30c9 11 8 27-3 35l-30 20 28 54c5 11-3 23-15 23h-70c-8 0-14-5-18-11l-42-72z" fill="#6b7280"/>
  <circle cx="256" cy="256" r="24" fill="#1f2937"/>
  <path d="M213 318c-6-7-6-17 1-23l45-39 32 41-38 31c-8 6-19 5-26-2z" fill="#9ca3af"/>
  <path d="M290 328l-24-59 45-26 18 37c5 11 1 24-10 30l-29 18c-6 4-14 3-20-0z" fill="#9ca3af"/>
</svg>